<svg width="557" height="557" xmlns="http://www.w3.org/2000/svg" xmlns:xlink="http://www.w3.org/1999/xlink" overflow="hidden"><defs><clipPath id="clip0"><rect x="278" y="34" width="557" height="557"/></clipPath></defs><g clip-path="url(#clip0)" transform="translate(-278 -34)"><path d="M556.5 34.0122C402.705 34.0122 278 158.693 278 312.5 278 466.307 402.693 590.988 556.5 590.988 710.32 590.988 835 466.307 835 312.5 835 158.693 710.32 34.0122 556.5 34.0122ZM556.5 117.283C607.39 117.283 648.628 158.534 648.628 209.399 648.628 260.277 607.39 301.515 556.5 301.515 505.635 301.515 464.397 260.277 464.397 209.399 464.397 158.534 505.635 117.283 556.5 117.283ZM556.439 518.176C505.683 518.176 459.197 499.692 423.342 469.097 414.608 461.647 409.568 450.722 409.568 439.26 409.568 387.673 451.319 346.386 502.919 346.386L610.106 346.386C661.717 346.386 703.31 387.673 703.31 439.26 703.31 450.735 698.294 461.634 689.548 469.084 653.705 499.692 607.206 518.176 556.439 518.176Z" fill="#D8350D"/></g></svg>